<mxfile host="app.diagrams.net" modified="2020-11-28T17:12:30.357Z" agent="5.0 (X11)" etag="EZaql0pHQ5UP6lWWj_ZF" version="13.10.4" type="github">
  <diagram id="hTp5FEm8uBuIozw8TmkM" name="Page-1">
    <mxGraphModel dx="1422" dy="802" grid="1" gridSize="10" guides="1" tooltips="1" connect="1" arrows="1" fold="1" page="1" pageScale="1" pageWidth="850" pageHeight="1100" math="0" shadow="0">
      <root>
        <mxCell id="0" />
        <mxCell id="1" parent="0" />
        <mxCell id="SQvLUzkadaO4jF93c9U_-1" value="" style="rounded=0;whiteSpace=wrap;html=1;fillColor=#FFE599;gradientDirection=north;gradientColor=#66B2FF;" parent="1" vertex="1">
          <mxGeometry x="40" y="40" width="240" height="400" as="geometry" />
        </mxCell>
        <mxCell id="SQvLUzkadaO4jF93c9U_-3" value="&lt;h2&gt;&lt;font style=&quot;font-size: 18px&quot; face=&quot;Comic Sans MS&quot;&gt;&lt;b&gt;Where should we go for lunch today?&lt;/b&gt;&lt;/font&gt;&lt;/h2&gt;" style="text;html=1;strokeColor=none;fillColor=none;align=center;verticalAlign=middle;whiteSpace=wrap;rounded=0;" parent="1" vertex="1">
          <mxGeometry x="60" y="60" width="200" height="40" as="geometry" />
        </mxCell>
        <mxCell id="SQvLUzkadaO4jF93c9U_-5" value="Coffee table" style="text;html=1;strokeColor=#001DBC;fillColor=#0050ef;align=center;verticalAlign=middle;whiteSpace=wrap;rounded=0;fontFamily=Comic Sans MS;fontColor=#ffffff;fontStyle=1;fontSize=16;" parent="1" vertex="1">
          <mxGeometry x="80" y="110" width="160" height="40" as="geometry" />
        </mxCell>
        <mxCell id="SQvLUzkadaO4jF93c9U_-6" value="At our desks" style="text;html=1;strokeColor=#001DBC;fillColor=#0050ef;align=center;verticalAlign=middle;whiteSpace=wrap;rounded=0;fontFamily=Comic Sans MS;fontColor=#ffffff;fontStyle=1;fontSize=16;" parent="1" vertex="1">
          <mxGeometry x="80" y="170" width="160" height="40" as="geometry" />
        </mxCell>
        <mxCell id="SQvLUzkadaO4jF93c9U_-7" value="On the front porch" style="text;html=1;strokeColor=#001DBC;fillColor=#0050ef;align=center;verticalAlign=middle;whiteSpace=wrap;rounded=0;fontFamily=Comic Sans MS;fontColor=#ffffff;fontStyle=1;fontSize=16;" parent="1" vertex="1">
          <mxGeometry x="80" y="230" width="160" height="40" as="geometry" />
        </mxCell>
        <mxCell id="SQvLUzkadaO4jF93c9U_-8" value="Have a cry in the shower instead" style="text;html=1;strokeColor=#001DBC;fillColor=#0050ef;align=center;verticalAlign=middle;whiteSpace=wrap;rounded=0;fontFamily=Comic Sans MS;fontColor=#ffffff;fontStyle=1;fontSize=16;" parent="1" vertex="1">
          <mxGeometry x="80" y="290" width="160" height="40" as="geometry" />
        </mxCell>
        <mxCell id="SQvLUzkadaO4jF93c9U_-10" value="" style="shape=flexArrow;endArrow=classic;html=1;fontFamily=Comic Sans MS;fontSize=16;fontColor=#FFFFFF;entryX=0;entryY=0;entryDx=0;entryDy=0;strokeColor=#005700;fillColor=#66FF66;endWidth=14;endSize=4.33;" parent="1" edge="1">
          <mxGeometry width="50" height="50" relative="1" as="geometry">
            <mxPoint x="69.52" y="205" as="sourcePoint" />
            <mxPoint x="69.52" y="175" as="targetPoint" />
          </mxGeometry>
        </mxCell>
        <mxCell id="SQvLUzkadaO4jF93c9U_-11" value="" style="shape=flexArrow;endArrow=classic;html=1;fontFamily=Comic Sans MS;fontSize=16;fontColor=#FFFFFF;entryX=0;entryY=0;entryDx=0;entryDy=0;strokeColor=#005700;fillColor=#66FF66;endWidth=14;endSize=4.33;" parent="1" edge="1">
          <mxGeometry width="50" height="50" relative="1" as="geometry">
            <mxPoint x="70" y="265" as="sourcePoint" />
            <mxPoint x="70" y="235" as="targetPoint" />
          </mxGeometry>
        </mxCell>
        <mxCell id="SQvLUzkadaO4jF93c9U_-12" value="" style="shape=flexArrow;endArrow=classic;html=1;fontFamily=Comic Sans MS;fontSize=16;fontColor=#FFFFFF;entryX=0;entryY=0;entryDx=0;entryDy=0;strokeColor=#005700;fillColor=#66FF66;endWidth=14;endSize=4.33;" parent="1" edge="1">
          <mxGeometry width="50" height="50" relative="1" as="geometry">
            <mxPoint x="70" y="325" as="sourcePoint" />
            <mxPoint x="70" y="295" as="targetPoint" />
          </mxGeometry>
        </mxCell>
        <mxCell id="SQvLUzkadaO4jF93c9U_-13" value="" style="shape=flexArrow;endArrow=classic;html=1;fontFamily=Comic Sans MS;fontSize=16;fontColor=#FFFFFF;strokeColor=#6F0000;fillColor=#a20025;endWidth=14;endSize=4.33;" parent="1" edge="1">
          <mxGeometry width="50" height="50" relative="1" as="geometry">
            <mxPoint x="250" y="115" as="sourcePoint" />
            <mxPoint x="250" y="145" as="targetPoint" />
          </mxGeometry>
        </mxCell>
        <mxCell id="SQvLUzkadaO4jF93c9U_-17" value="" style="shape=flexArrow;endArrow=classic;html=1;fontFamily=Comic Sans MS;fontSize=16;fontColor=#FFFFFF;strokeColor=#6F0000;fillColor=#a20025;endWidth=14;endSize=4.33;" parent="1" edge="1">
          <mxGeometry width="50" height="50" relative="1" as="geometry">
            <mxPoint x="250" y="175" as="sourcePoint" />
            <mxPoint x="250" y="205" as="targetPoint" />
          </mxGeometry>
        </mxCell>
        <mxCell id="SQvLUzkadaO4jF93c9U_-18" value="" style="shape=flexArrow;endArrow=classic;html=1;fontFamily=Comic Sans MS;fontSize=16;fontColor=#FFFFFF;strokeColor=#6F0000;fillColor=#a20025;endWidth=14;endSize=4.33;" parent="1" edge="1">
          <mxGeometry width="50" height="50" relative="1" as="geometry">
            <mxPoint x="250" y="235" as="sourcePoint" />
            <mxPoint x="250" y="265" as="targetPoint" />
          </mxGeometry>
        </mxCell>
        <mxCell id="SQvLUzkadaO4jF93c9U_-20" value="" style="rounded=1;whiteSpace=wrap;html=1;fontFamily=Comic Sans MS;fontSize=16;fontColor=#ffffff;strokeColor=#6F0000;strokeWidth=6;fillColor=#CC0000;" parent="1" vertex="1">
          <mxGeometry x="105" y="370" width="110" height="30" as="geometry" />
        </mxCell>
        <mxCell id="SQvLUzkadaO4jF93c9U_-21" value="SUBMIT" style="text;html=1;strokeColor=none;fillColor=none;align=center;verticalAlign=middle;whiteSpace=wrap;rounded=0;fontFamily=Comic Sans MS;fontSize=16;fontColor=#FFFFFF;" parent="1" vertex="1">
          <mxGeometry x="140" y="375" width="40" height="20" as="geometry" />
        </mxCell>
        <mxCell id="SQvLUzkadaO4jF93c9U_-22" value="" style="rounded=0;whiteSpace=wrap;html=1;fillColor=#FFE599;gradientDirection=north;gradientColor=#66B2FF;" parent="1" vertex="1">
          <mxGeometry x="360" y="40" width="240" height="400" as="geometry" />
        </mxCell>
        <mxCell id="SQvLUzkadaO4jF93c9U_-23" value="&lt;h2&gt;&lt;font style=&quot;font-size: 18px&quot; face=&quot;Comic Sans MS&quot;&gt;&lt;b&gt;Where should we go for lunch today?&lt;/b&gt;&lt;/font&gt;&lt;/h2&gt;" style="text;html=1;strokeColor=none;fillColor=none;align=center;verticalAlign=middle;whiteSpace=wrap;rounded=0;" parent="1" vertex="1">
          <mxGeometry x="380" y="60" width="200" height="40" as="geometry" />
        </mxCell>
        <mxCell id="SQvLUzkadaO4jF93c9U_-24" value="&lt;div&gt;#1 Coffee table&lt;/div&gt;&lt;div&gt;1st choice of Alberto!&lt;br&gt;&lt;/div&gt;" style="text;html=1;strokeColor=#001DBC;fillColor=#0050ef;align=center;verticalAlign=middle;whiteSpace=wrap;rounded=0;fontFamily=Comic Sans MS;fontColor=#ffffff;fontStyle=1;fontSize=16;" parent="1" vertex="1">
          <mxGeometry x="380" y="116" width="200" height="54" as="geometry" />
        </mxCell>
        <mxCell id="SQvLUzkadaO4jF93c9U_-25" value="#3 At our desks" style="text;html=1;strokeColor=#001DBC;fillColor=#0050ef;align=center;verticalAlign=middle;whiteSpace=wrap;rounded=0;fontFamily=Comic Sans MS;fontColor=#ffffff;fontStyle=1;fontSize=16;" parent="1" vertex="1">
          <mxGeometry x="380" y="240" width="140" height="50" as="geometry" />
        </mxCell>
        <mxCell id="SQvLUzkadaO4jF93c9U_-26" value="&lt;font style=&quot;font-size: 13px&quot;&gt;#4 On the front porch&lt;/font&gt;" style="text;html=1;strokeColor=#001DBC;fillColor=#0050ef;align=center;verticalAlign=middle;whiteSpace=wrap;rounded=0;fontFamily=Comic Sans MS;fontColor=#ffffff;fontStyle=1;fontSize=16;" parent="1" vertex="1">
          <mxGeometry x="380" y="300" width="90" height="50" as="geometry" />
        </mxCell>
        <mxCell id="SQvLUzkadaO4jF93c9U_-27" value="&lt;font style=&quot;font-size: 14px&quot;&gt;#2 Have a cry in the shower instead&lt;/font&gt;" style="text;html=1;strokeColor=#001DBC;fillColor=#0050ef;align=center;verticalAlign=middle;whiteSpace=wrap;rounded=0;fontFamily=Comic Sans MS;fontColor=#ffffff;fontStyle=1;fontSize=16;" parent="1" vertex="1">
          <mxGeometry x="380" y="180" width="160" height="50" as="geometry" />
        </mxCell>
        <mxCell id="SQvLUzkadaO4jF93c9U_-34" value="" style="rounded=1;whiteSpace=wrap;html=1;fontFamily=Comic Sans MS;fontSize=16;fontColor=#ffffff;strokeColor=#3A5431;strokeWidth=6;fillColor=#6d8764;" parent="1" vertex="1">
          <mxGeometry x="391.25" y="370" width="177.5" height="60" as="geometry" />
        </mxCell>
        <mxCell id="SQvLUzkadaO4jF93c9U_-35" value="MAKE ANOTHER POLL" style="text;html=1;strokeColor=none;fillColor=none;align=center;verticalAlign=middle;whiteSpace=wrap;rounded=0;fontFamily=Comic Sans MS;fontSize=16;fontColor=#FFFFFF;" parent="1" vertex="1">
          <mxGeometry x="407.5" y="390" width="145" height="20" as="geometry" />
        </mxCell>
        <mxCell id="SQvLUzkadaO4jF93c9U_-42" value="If I&#39;m replying to a poll it looks like this..." style="text;html=1;strokeColor=none;fillColor=none;align=center;verticalAlign=middle;whiteSpace=wrap;rounded=0;fontFamily=Comic Sans MS;fontSize=16;" parent="1" vertex="1">
          <mxGeometry x="140" y="10" width="360" height="20" as="geometry" />
        </mxCell>
        <mxCell id="TwowaBOaAKGraPtakr_W-1" value="" style="rounded=0;whiteSpace=wrap;html=1;fillColor=#FFE599;gradientDirection=north;gradientColor=#66B2FF;" parent="1" vertex="1">
          <mxGeometry x="40" y="520" width="240" height="400" as="geometry" />
        </mxCell>
        <mxCell id="TwowaBOaAKGraPtakr_W-2" value="our superfun poll app" style="text;html=1;strokeColor=none;fillColor=none;align=center;verticalAlign=middle;whiteSpace=wrap;rounded=0;fontFamily=Comic Sans MS;fontSize=22;fontStyle=1" parent="1" vertex="1">
          <mxGeometry x="60" y="540" width="200" height="80" as="geometry" />
        </mxCell>
        <mxCell id="TwowaBOaAKGraPtakr_W-15" value="landing page" style="text;html=1;strokeColor=none;fillColor=none;align=center;verticalAlign=middle;whiteSpace=wrap;rounded=0;fontFamily=Comic Sans MS;fontSize=16;" parent="1" vertex="1">
          <mxGeometry x="10" y="480" width="360" height="20" as="geometry" />
        </mxCell>
        <mxCell id="TwowaBOaAKGraPtakr_W-16" value="" style="rounded=1;whiteSpace=wrap;html=1;fontFamily=Comic Sans MS;fontSize=16;fontColor=#ffffff;strokeColor=#3A5431;strokeWidth=6;fillColor=#6d8764;" parent="1" vertex="1">
          <mxGeometry x="71.25" y="670" width="177.5" height="60" as="geometry" />
        </mxCell>
        <mxCell id="TwowaBOaAKGraPtakr_W-17" value="MAKE A NEW POLL" style="text;html=1;strokeColor=none;fillColor=none;align=center;verticalAlign=middle;whiteSpace=wrap;rounded=0;fontFamily=Comic Sans MS;fontSize=16;fontColor=#FFFFFF;" parent="1" vertex="1">
          <mxGeometry x="95" y="690" width="145" height="20" as="geometry" />
        </mxCell>
        <mxCell id="TwowaBOaAKGraPtakr_W-18" value="" style="shape=flexArrow;endArrow=classic;html=1;fontFamily=Comic Sans MS;fontSize=16;fontColor=#FFFFFF;width=30;endSize=11.22;fillColor=#000000;" parent="1" edge="1">
          <mxGeometry width="50" height="50" relative="1" as="geometry">
            <mxPoint x="260" y="714.5" as="sourcePoint" />
            <mxPoint x="350" y="710" as="targetPoint" />
          </mxGeometry>
        </mxCell>
        <mxCell id="TwowaBOaAKGraPtakr_W-19" value="" style="shape=flexArrow;endArrow=classic;html=1;fontFamily=Comic Sans MS;fontSize=16;fontColor=#FFFFFF;width=30;endSize=11.22;fillColor=#000000;" parent="1" edge="1">
          <mxGeometry width="50" height="50" relative="1" as="geometry">
            <mxPoint x="470" y="454.5" as="sourcePoint" />
            <mxPoint x="470" y="520" as="targetPoint" />
          </mxGeometry>
        </mxCell>
        <mxCell id="TwowaBOaAKGraPtakr_W-20" value="" style="rounded=0;whiteSpace=wrap;html=1;fillColor=#FFE599;gradientDirection=north;gradientColor=#66B2FF;" parent="1" vertex="1">
          <mxGeometry x="360" y="520" width="240" height="610" as="geometry" />
        </mxCell>
        <mxCell id="TwowaBOaAKGraPtakr_W-21" value="option 1" style="text;html=1;strokeColor=#001DBC;fillColor=#0050ef;align=center;verticalAlign=middle;whiteSpace=wrap;rounded=0;fontFamily=Comic Sans MS;fontColor=#ffffff;fontStyle=1;fontSize=16;" parent="1" vertex="1">
          <mxGeometry x="400" y="600" width="160" height="40" as="geometry" />
        </mxCell>
        <mxCell id="TwowaBOaAKGraPtakr_W-22" value="option 2" style="text;html=1;strokeColor=#001DBC;fillColor=#0050ef;align=center;verticalAlign=middle;whiteSpace=wrap;rounded=0;fontFamily=Comic Sans MS;fontColor=#ffffff;fontStyle=1;fontSize=16;" parent="1" vertex="1">
          <mxGeometry x="400" y="690" width="160" height="40" as="geometry" />
        </mxCell>
        <mxCell id="TwowaBOaAKGraPtakr_W-23" value="optional option 3" style="text;html=1;strokeColor=#001DBC;fillColor=#0050ef;align=center;verticalAlign=middle;whiteSpace=wrap;rounded=0;fontFamily=Comic Sans MS;fontColor=#ffffff;fontStyle=1;fontSize=16;" parent="1" vertex="1">
          <mxGeometry x="400" y="770" width="160" height="40" as="geometry" />
        </mxCell>
        <mxCell id="TwowaBOaAKGraPtakr_W-24" value="optional option 4" style="text;html=1;strokeColor=#001DBC;fillColor=#0050ef;align=center;verticalAlign=middle;whiteSpace=wrap;rounded=0;fontFamily=Comic Sans MS;fontColor=#ffffff;fontStyle=1;fontSize=16;" parent="1" vertex="1">
          <mxGeometry x="400" y="850" width="160" height="40" as="geometry" />
        </mxCell>
        <mxCell id="TwowaBOaAKGraPtakr_W-25" value="optional option 5" style="text;html=1;strokeColor=#001DBC;fillColor=#0050ef;align=center;verticalAlign=middle;whiteSpace=wrap;rounded=0;fontFamily=Comic Sans MS;fontColor=#ffffff;fontStyle=1;fontSize=16;" parent="1" vertex="1">
          <mxGeometry x="400" y="930" width="160" height="40" as="geometry" />
        </mxCell>
        <mxCell id="TwowaBOaAKGraPtakr_W-26" value="" style="rounded=1;whiteSpace=wrap;html=1;fontFamily=Comic Sans MS;fontSize=16;fontColor=#ffffff;strokeColor=#6F0000;strokeWidth=6;fillColor=#CC0000;" parent="1" vertex="1">
          <mxGeometry x="420" y="1080" width="110" height="30" as="geometry" />
        </mxCell>
        <mxCell id="TwowaBOaAKGraPtakr_W-27" value="SUBMIT" style="text;html=1;strokeColor=none;fillColor=none;align=center;verticalAlign=middle;whiteSpace=wrap;rounded=0;fontFamily=Comic Sans MS;fontSize=16;fontColor=#FFFFFF;" parent="1" vertex="1">
          <mxGeometry x="455" y="1085" width="40" height="20" as="geometry" />
        </mxCell>
        <mxCell id="TwowaBOaAKGraPtakr_W-29" value="&lt;h2 style=&quot;font-size: 10px&quot;&gt;write your question here!&lt;br&gt;&lt;/h2&gt;" style="text;html=1;strokeColor=#666666;fillColor=#f5f5f5;align=center;verticalAlign=middle;whiteSpace=wrap;rounded=0;labelBorderColor=none;fontColor=#333333;fontSize=10;" parent="1" vertex="1">
          <mxGeometry x="372.5" y="530" width="215" height="60" as="geometry" />
        </mxCell>
        <mxCell id="TwowaBOaAKGraPtakr_W-30" value="email address here" style="text;html=1;strokeColor=#666666;fillColor=#f5f5f5;align=center;verticalAlign=middle;whiteSpace=wrap;rounded=0;labelBorderColor=none;fontColor=#333333;fontSize=10;" parent="1" vertex="1">
          <mxGeometry x="372.5" y="1050" width="215" height="20" as="geometry" />
        </mxCell>
        <mxCell id="TwowaBOaAKGraPtakr_W-31" value="&lt;div&gt;only the poll owner sees this page&lt;/div&gt;&lt;div&gt;how to display names?&lt;/div&gt;&lt;div&gt;hover over options to see number one choice?&lt;/div&gt;&lt;div&gt;change display options to see who voted for what?&lt;/div&gt;&lt;div&gt;&lt;br&gt;&lt;/div&gt;" style="text;html=1;strokeColor=none;fillColor=none;align=center;verticalAlign=middle;whiteSpace=wrap;rounded=0;fontFamily=Comic Sans MS;fontSize=16;" parent="1" vertex="1">
          <mxGeometry x="620" y="120" width="150" height="220" as="geometry" />
        </mxCell>
        <mxCell id="AB8Nfa7L-gfzaDn8Pi_j-2" value="GET /:id" style="text;html=1;strokeColor=none;fillColor=none;align=center;verticalAlign=middle;whiteSpace=wrap;rounded=0;fontStyle=1" vertex="1" parent="1">
          <mxGeometry x="2.5" y="10" width="130" height="20" as="geometry" />
        </mxCell>
        <mxCell id="AB8Nfa7L-gfzaDn8Pi_j-4" value="GET /new/" style="text;html=1;strokeColor=none;fillColor=none;align=center;verticalAlign=middle;whiteSpace=wrap;rounded=0;fontStyle=1" vertex="1" parent="1">
          <mxGeometry x="610" y="530" width="40" height="20" as="geometry" />
        </mxCell>
        <mxCell id="AB8Nfa7L-gfzaDn8Pi_j-5" value="GET /" style="text;html=1;strokeColor=none;fillColor=none;align=center;verticalAlign=middle;whiteSpace=wrap;rounded=0;fontStyle=1" vertex="1" parent="1">
          <mxGeometry x="47.5" y="490" width="40" height="20" as="geometry" />
        </mxCell>
        <mxCell id="AB8Nfa7L-gfzaDn8Pi_j-6" value="&lt;div&gt;POST /&lt;/div&gt;&lt;div&gt;also sends email with links&lt;br&gt;&lt;/div&gt;" style="text;html=1;strokeColor=none;fillColor=none;align=center;verticalAlign=middle;whiteSpace=wrap;rounded=0;fontStyle=1" vertex="1" parent="1">
          <mxGeometry x="540" y="1050" width="102.5" height="90" as="geometry" />
        </mxCell>
        <mxCell id="AB8Nfa7L-gfzaDn8Pi_j-7" value="GET /my/:id (admin link)" style="text;html=1;strokeColor=none;fillColor=none;align=center;verticalAlign=middle;whiteSpace=wrap;rounded=0;fontStyle=1" vertex="1" parent="1">
          <mxGeometry x="528.75" y="10" width="161.25" height="20" as="geometry" />
        </mxCell>
        <mxCell id="AB8Nfa7L-gfzaDn8Pi_j-8" style="edgeStyle=orthogonalEdgeStyle;rounded=0;orthogonalLoop=1;jettySize=auto;html=1;exitX=0.25;exitY=0;exitDx=0;exitDy=0;entryX=0;entryY=0.25;entryDx=0;entryDy=0;" edge="1" parent="1" source="AB8Nfa7L-gfzaDn8Pi_j-4" target="AB8Nfa7L-gfzaDn8Pi_j-4">
          <mxGeometry relative="1" as="geometry" />
        </mxCell>
        <mxCell id="AB8Nfa7L-gfzaDn8Pi_j-11" value="POST /:id" style="text;html=1;strokeColor=none;fillColor=none;align=center;verticalAlign=middle;whiteSpace=wrap;rounded=0;fontStyle=1" vertex="1" parent="1">
          <mxGeometry x="120" y="410" width="40" height="20" as="geometry" />
        </mxCell>
        <mxCell id="AB8Nfa7L-gfzaDn8Pi_j-12" value="" style="shape=flexArrow;endArrow=classic;html=1;fontFamily=Comic Sans MS;fontSize=16;fontColor=#FFFFFF;width=30;endSize=11.22;fillColor=#000000;" edge="1" parent="1">
          <mxGeometry width="50" height="50" relative="1" as="geometry">
            <mxPoint x="120" y="434.5" as="sourcePoint" />
            <mxPoint x="120" y="500" as="targetPoint" />
          </mxGeometry>
        </mxCell>
        <mxCell id="AB8Nfa7L-gfzaDn8Pi_j-13" value="" style="rounded=0;whiteSpace=wrap;html=1;fillColor=#FFE599;gradientDirection=north;gradientColor=#66B2FF;" vertex="1" parent="1">
          <mxGeometry x="680" y="520" width="240" height="400" as="geometry" />
        </mxCell>
        <mxCell id="AB8Nfa7L-gfzaDn8Pi_j-14" value="&lt;div&gt;THANKS FOR VOTING!&lt;/div&gt;&lt;div&gt;/&lt;/div&gt;&lt;div&gt;THANKS FOR SUBMITTING&lt;/div&gt;&lt;div&gt;check results here&lt;/div&gt;&lt;div&gt;send email to friends&lt;br&gt;&lt;/div&gt;" style="text;html=1;strokeColor=none;fillColor=none;align=center;verticalAlign=middle;whiteSpace=wrap;rounded=0;fontFamily=Comic Sans MS;fontSize=22;fontStyle=1" vertex="1" parent="1">
          <mxGeometry x="700" y="660" width="200" height="80" as="geometry" />
        </mxCell>
        <mxCell id="AB8Nfa7L-gfzaDn8Pi_j-15" value="" style="rounded=1;whiteSpace=wrap;html=1;fontFamily=Comic Sans MS;fontSize=16;fontColor=#ffffff;strokeColor=#3A5431;strokeWidth=6;fillColor=#6d8764;" vertex="1" parent="1">
          <mxGeometry x="711.25" y="820" width="177.5" height="60" as="geometry" />
        </mxCell>
        <mxCell id="AB8Nfa7L-gfzaDn8Pi_j-16" value="MAKE ANOTHER POLL" style="text;html=1;strokeColor=none;fillColor=none;align=center;verticalAlign=middle;whiteSpace=wrap;rounded=0;fontFamily=Comic Sans MS;fontSize=16;fontColor=#FFFFFF;" vertex="1" parent="1">
          <mxGeometry x="727.5" y="840" width="145" height="20" as="geometry" />
        </mxCell>
        <mxCell id="AB8Nfa7L-gfzaDn8Pi_j-17" value="after submit" style="text;html=1;strokeColor=none;fillColor=none;align=center;verticalAlign=middle;whiteSpace=wrap;rounded=0;fontFamily=Comic Sans MS;fontSize=16;" vertex="1" parent="1">
          <mxGeometry x="620" y="490" width="360" height="20" as="geometry" />
        </mxCell>
        <mxCell id="AB8Nfa7L-gfzaDn8Pi_j-18" value="" style="rounded=0;whiteSpace=wrap;html=1;" vertex="1" parent="1">
          <mxGeometry x="400" y="1020" width="20" height="20" as="geometry" />
        </mxCell>
        <mxCell id="AB8Nfa7L-gfzaDn8Pi_j-19" value="&lt;div&gt;anonymous poll?&lt;/div&gt;" style="text;html=1;strokeColor=none;fillColor=none;align=center;verticalAlign=middle;whiteSpace=wrap;rounded=0;fontFamily=Comic Sans MS;fontSize=16;" vertex="1" parent="1">
          <mxGeometry x="400" y="1020" width="180" height="20" as="geometry" />
        </mxCell>
        <mxCell id="AB8Nfa7L-gfzaDn8Pi_j-20" value="YOUR NAME" style="text;html=1;strokeColor=#666666;fillColor=#f5f5f5;align=center;verticalAlign=middle;whiteSpace=wrap;rounded=0;labelBorderColor=none;fontColor=#333333;fontSize=10;" vertex="1" parent="1">
          <mxGeometry x="95" y="340" width="125" height="20" as="geometry" />
        </mxCell>
        <mxCell id="AB8Nfa7L-gfzaDn8Pi_j-23" value="&lt;div&gt;optional description&lt;/div&gt;" style="text;html=1;strokeColor=#666666;fillColor=#f5f5f5;align=center;verticalAlign=middle;whiteSpace=wrap;rounded=0;labelBorderColor=none;fontColor=#333333;fontSize=10;" vertex="1" parent="1">
          <mxGeometry x="395" y="640" width="170" height="40" as="geometry" />
        </mxCell>
        <mxCell id="AB8Nfa7L-gfzaDn8Pi_j-24" value="&lt;div&gt;optional description&lt;/div&gt;" style="text;html=1;strokeColor=#666666;fillColor=#f5f5f5;align=center;verticalAlign=middle;whiteSpace=wrap;rounded=0;labelBorderColor=none;fontColor=#333333;fontSize=10;" vertex="1" parent="1">
          <mxGeometry x="395" y="730" width="170" height="40" as="geometry" />
        </mxCell>
        <mxCell id="AB8Nfa7L-gfzaDn8Pi_j-25" value="&lt;div&gt;optional description&lt;/div&gt;" style="text;html=1;strokeColor=#666666;fillColor=#f5f5f5;align=center;verticalAlign=middle;whiteSpace=wrap;rounded=0;labelBorderColor=none;fontColor=#333333;fontSize=10;" vertex="1" parent="1">
          <mxGeometry x="395" y="810" width="170" height="40" as="geometry" />
        </mxCell>
        <mxCell id="AB8Nfa7L-gfzaDn8Pi_j-26" value="&lt;div&gt;optional description&lt;/div&gt;" style="text;html=1;strokeColor=#666666;fillColor=#f5f5f5;align=center;verticalAlign=middle;whiteSpace=wrap;rounded=0;labelBorderColor=none;fontColor=#333333;fontSize=10;" vertex="1" parent="1">
          <mxGeometry x="395" y="890" width="170" height="40" as="geometry" />
        </mxCell>
        <mxCell id="AB8Nfa7L-gfzaDn8Pi_j-27" value="&lt;div&gt;optional description&lt;/div&gt;" style="text;html=1;strokeColor=#666666;fillColor=#f5f5f5;align=center;verticalAlign=middle;whiteSpace=wrap;rounded=0;labelBorderColor=none;fontColor=#333333;fontSize=10;" vertex="1" parent="1">
          <mxGeometry x="395" y="970" width="170" height="40" as="geometry" />
        </mxCell>
      </root>
    </mxGraphModel>
  </diagram>
</mxfile>
